# xmcd CD database file
#
# Track frame offsets:
#	304
#	16264
#	28834
#	41214
#	52131
#	57974
#	76165
#	93297
#	97771
#	113456
#	133759
#
# Disc length: 2644 seconds
#
# Revision: 2
# Processed by: cddbd v1.5.2PL0 Copyright (c) Steve Scherf et al.
# Submitted via: CDex 1.51
#
DISCID=860a500b
DTITLE=Rolo Tomassi - Hysterics
DYEAR=2008
DGENRE=
TTITLE0=Oh, Hello Ghost
TTITLE1=I Love Turbulence
TTITLE2=Fofteen
TTITLE3=Abraxas
TTITLE4=An Apology To The Universe
TTITLE5=Nine
TTITLE6=Macabre Charade
TTITLE7=Trojan Measures
TTITLE8=Everything Went Grey
TTITLE9=Scabs
TTITLE10=Fantasia
EXTD=YEAR: 2008
EXTT0=
EXTT1=
EXTT2=
EXTT3=
EXTT4=
EXTT5=
EXTT6=
EXTT7=
EXTT8=
EXTT9=
EXTT10=
PLAYORDER=
